<?xml version="1.0" standalone="no"?><!DOCTYPE svg PUBLIC "-//W3C//DTD SVG 1.1//EN" "http://www.w3.org/Graphics/SVG/1.1/DTD/svg11.dtd"><svg t="1624774568584" class="icon" viewBox="0 0 1039 1024" version="1.1" xmlns="http://www.w3.org/2000/svg" p-id="7815" xmlns:xlink="http://www.w3.org/1999/xlink" width="202.9296875" height="200"><defs><style type="text/css"></style></defs><path d="M519.68601 528.496009c-144.234503 0-261.649185-117.3757-261.649185-261.649185 0-3.45643-0.103953-8.264247-0.207906-13.838715-0.597729-28.768936-0.766652-52.041368 2.858702-67.946146 13.085058-57.329966 46.194023-105.17424 95.766513-138.374164C402.063422 16.151666 458.50979 0 519.68601 0c59.032193 0 113.76334 14.826267 158.242142 42.880528 48.701884 30.705057 82.473549 75.651646 97.650656 129.940993 5.691416 20.34876 5.99028 51.846456 5.795369 85.072369v8.913952c-0.038982 144.312467-117.453664 261.688167-261.688167 261.688167z m0-445.333773c-44.647725 0-85.085363 11.278878-116.946894 32.628183-31.614644 21.167388-52.691073 51.521604-60.955321 87.762147-1.624262 7.79646-1.052522 35.772756-0.805634 47.740322 0.129941 6.029262 0.233894 11.239896 0.233894 15.592919 0 98.417309 80.06964 178.486949 178.486949 178.486949s178.486949-80.06964 178.486949-178.486949v-9.407728c0.077965-14.046621 0.298864-51.378669-2.715767-62.18976C680.345054 141.063943 626.237625 83.162236 519.68601 83.162236zM1039.359025 1024H0l0.519764-42.100882C2.196003 845.526045 56.953137 732.763251 158.878853 655.812195c46.505882-35.084068 101.938709-62.046824 164.739192-80.043652 60.240645-17.256164 126.211687-25.988199 196.067965-25.988199s135.827321 8.745029 196.067965 25.988199c62.800482 17.996828 118.246304 44.920601 164.739192 80.043652 101.925715 76.951056 156.68285 189.713851 158.359089 326.086923z m-953.052217-83.162236h866.706427c-4.664882-40.424643-15.423996-77.639744-32.147402-111.034579-20.946488-41.879982-51.417651-78.094537-90.52989-107.630125-38.267623-28.924865-84.552605-51.28771-137.490565-66.451824s-111.047573-22.79165-173.159368-22.79165-120.377336 7.666519-173.159368 22.79165-99.222943 37.526959-137.542542 66.451824c-39.112239 29.535588-69.583402 65.750143-90.52989 107.630125-16.723406 33.394835-27.48252 70.609936-32.147402 111.034579z" p-id="7816" fill="#70A7E8"></path></svg>